<svg width="180" height="40" viewBox="0 0 180 40" fill="none" xmlns="http://www.w3.org/2000/svg">
  <defs>
    <linearGradient id="kn-grad" x1="0" y1="0" x2="40" y2="40" gradientUnits="userSpaceOnUse">
      <stop offset="0%" stop-color="#FF6524"/>
      <stop offset="100%" stop-color="#F59E0B"/>
    </linearGradient>
  </defs>

  <!-- Icon mark: hexagonal network -->
  <path d="M20 2L34.64 10.5V27.5L20 36L5.36 27.5V10.5L20 2Z"
        fill="url(#kn-grad)" opacity="0.15"/>
  <path d="M20 2L34.64 10.5V27.5L20 36L5.36 27.5V10.5L20 2Z"
        stroke="#FF6524" stroke-width="1.5" fill="none" opacity="0.5"/>
  <!-- Central node -->
  <circle cx="20" cy="19" r="3.5" fill="#FF6524"/>
  <!-- Outer nodes -->
  <circle cx="20" cy="7"  r="2.2" fill="#F59E0B"/>
  <circle cx="29" cy="13" r="2.2" fill="#F59E0B"/>
  <circle cx="29" cy="25" r="2.2" fill="#F59E0B"/>
  <circle cx="20" cy="31" r="2.2" fill="#F59E0B"/>
  <circle cx="11" cy="25" r="2.2" fill="#F59E0B"/>
  <circle cx="11" cy="13" r="2.2" fill="#F59E0B"/>
  <!-- Connection lines -->
  <line x1="20" y1="15.5" x2="20"  y2="9.2"  stroke="#FF6524" stroke-width="1" opacity="0.45"/>
  <line x1="20" y1="15.5" x2="27"  y2="14"   stroke="#FF6524" stroke-width="1" opacity="0.45"/>
  <line x1="20" y1="15.5" x2="27"  y2="24"   stroke="#FF6524" stroke-width="1" opacity="0.45"/>
  <line x1="20" y1="22.5" x2="20"  y2="28.8" stroke="#FF6524" stroke-width="1" opacity="0.45"/>
  <line x1="20" y1="22.5" x2="13"  y2="24"   stroke="#FF6524" stroke-width="1" opacity="0.45"/>
  <line x1="20" y1="22.5" x2="13"  y2="14"   stroke="#FF6524" stroke-width="1" opacity="0.45"/>

  <!-- Wordmark -->
  <text x="50" y="26" font-family="system-ui,-apple-system,sans-serif" font-size="20" font-weight="900" letter-spacing="-0.5" fill="#F1F5F9">KENU</text>
  <text x="102" y="26" font-family="system-ui,-apple-system,sans-serif" font-size="20" font-weight="900" letter-spacing="-0.5" fill="#FF6524">XA</text>
  <!-- Subtext -->
  <text x="51" y="36" font-family="system-ui,-apple-system,sans-serif" font-size="7" font-weight="500" letter-spacing="2.5" fill="#64748B">NETWORK</text>
</svg>
