<svg width="180" height="40" viewBox="0 0 180 40" fill="none" xmlns="http://www.w3.org/2000/svg">
  <path d="M20 2L34.64 10.5V27.5L20 36L5.36 27.5V10.5L20 2Z"
        fill="white" opacity="0.08"/>
  <path d="M20 2L34.64 10.5V27.5L20 36L5.36 27.5V10.5L20 2Z"
        stroke="white" stroke-width="1.5" fill="none" opacity="0.35"/>
  <circle cx="20" cy="19" r="3.5" fill="white"/>
  <circle cx="20" cy="7"  r="2.2" fill="white" opacity="0.7"/>
  <circle cx="29" cy="13" r="2.2" fill="white" opacity="0.7"/>
  <circle cx="29" cy="25" r="2.2" fill="white" opacity="0.7"/>
  <circle cx="20" cy="31" r="2.2" fill="white" opacity="0.7"/>
  <circle cx="11" cy="25" r="2.2" fill="white" opacity="0.7"/>
  <circle cx="11" cy="13" r="2.2" fill="white" opacity="0.7"/>
  <line x1="20" y1="15.5" x2="20"  y2="9.2"  stroke="white" stroke-width="1" opacity="0.35"/>
  <line x1="20" y1="15.5" x2="27"  y2="14"   stroke="white" stroke-width="1" opacity="0.35"/>
  <line x1="20" y1="15.5" x2="27"  y2="24"   stroke="white" stroke-width="1" opacity="0.35"/>
  <line x1="20" y1="22.5" x2="20"  y2="28.8" stroke="white" stroke-width="1" opacity="0.35"/>
  <line x1="20" y1="22.5" x2="13"  y2="24"   stroke="white" stroke-width="1" opacity="0.35"/>
  <line x1="20" y1="22.5" x2="13"  y2="14"   stroke="white" stroke-width="1" opacity="0.35"/>
  <text x="50" y="26" font-family="system-ui,-apple-system,sans-serif" font-size="20" font-weight="900" letter-spacing="-0.5" fill="white">KENUXA</text>
  <text x="51" y="36" font-family="system-ui,-apple-system,sans-serif" font-size="7" font-weight="500" letter-spacing="2.5" fill="rgba(255,255,255,0.5)">NETWORK</text>
</svg>
